<svg xmlns="http://www.w3.org/2000/svg" xmlns:xlink="http://www.w3.org/1999/xlink" width="500" zoomAndPan="magnify" viewBox="0 0 375 374.999991" height="500" preserveAspectRatio="xMidYMid meet" version="1.0"><defs><g/><clipPath id="49316422c5"><path d="M 28 132 L 125 132 L 125 237.75 L 28 237.75 Z M 28 132 " clip-rule="nonzero"/></clipPath><clipPath id="73dbffb4d0"><path d="M 8.492188 109.5 L 144.242188 109.5 L 144.242188 178 L 8.492188 178 Z M 8.492188 109.5 " clip-rule="nonzero"/></clipPath></defs><g clip-path="url(#49316422c5)"><path fill="#ffffff" d="M 124.027344 174.691406 Z M 124.027344 174.691406 L 76.382812 132.566406 L 28.710938 174.707031 L 28.710938 234.925781 C 28.710938 236.480469 29.96875 237.730469 31.527344 237.730469 L 61.320312 237.730469 L 61.320312 211.324219 C 61.320312 209.769531 62.570312 208.515625 64.128906 208.515625 L 88.609375 208.515625 C 90.164062 208.515625 91.414062 209.769531 91.414062 211.324219 L 91.414062 237.730469 L 121.214844 237.730469 C 122.773438 237.730469 124.023438 236.480469 124.023438 234.925781 L 124.023438 174.6875 Z M 28.710938 174.707031 Z M 28.710938 174.707031 " fill-opacity="1" fill-rule="nonzero"/></g><g clip-path="url(#73dbffb4d0)"><path fill="#ffffff" d="M 76.105469 109.511719 L 8.492188 169.28125 L 15.617188 177.300781 L 76.382812 123.582031 L 137.136719 177.300781 L 144.242188 169.28125 L 76.644531 109.511719 L 76.382812 109.816406 Z M 76.105469 109.511719 " fill-opacity="1" fill-rule="nonzero"/></g><path fill="#ffffff" d="M 28.710938 118.113281 L 45.851562 118.113281 L 45.703125 128.25 L 28.710938 143.574219 Z M 28.710938 118.113281 " fill-opacity="1" fill-rule="nonzero"/><g fill="#ffffff" fill-opacity="1"><g transform="translate(153.503603, 185.708121)"><g><path d="M 35 -26.21875 C 36.15625 -26.21875 37.109375 -26.253906 37.859375 -26.328125 L 37.859375 -25.578125 C 36.390625 -24.859375 35.238281 -23.125 34.40625 -20.375 L 28.15625 0 C 27.363281 -0.0507812 26.707031 -0.078125 26.1875 -0.078125 C 25.6875 -0.078125 25.039062 -0.0507812 24.25 0 L 19.40625 -14.765625 L 14.171875 0 C 13.378906 -0.0507812 12.722656 -0.078125 12.203125 -0.078125 C 11.703125 -0.078125 11.054688 -0.0507812 10.265625 0 L 1.640625 -23.203125 C 1.335938 -23.992188 0.988281 -24.582031 0.59375 -24.96875 C 0.195312 -25.351562 -0.1875 -25.554688 -0.5625 -25.578125 L -0.5625 -26.328125 C 1.226562 -26.253906 3.425781 -26.21875 6.03125 -26.21875 C 8.28125 -26.21875 9.925781 -26.253906 10.96875 -26.328125 L 10.96875 -25.578125 C 10.300781 -25.460938 9.96875 -24.96875 9.96875 -24.09375 C 9.96875 -23.570312 10.078125 -23.03125 10.296875 -22.46875 L 15.6875 -7.28125 L 18.96875 -16.140625 L 16.4375 -23.84375 C 16.238281 -24.457031 15.988281 -24.890625 15.6875 -25.140625 C 15.394531 -25.390625 15.015625 -25.535156 14.546875 -25.578125 L 14.546875 -26.328125 C 16.203125 -26.253906 18.34375 -26.21875 20.96875 -26.21875 C 23.550781 -26.21875 25.472656 -26.253906 26.734375 -26.328125 L 26.734375 -25.578125 C 25.847656 -25.554688 25.203125 -25.445312 24.796875 -25.25 C 24.398438 -25.050781 24.203125 -24.691406 24.203125 -24.171875 C 24.203125 -23.703125 24.328125 -23.132812 24.578125 -22.46875 L 29.484375 -7.546875 L 32.359375 -16.734375 C 33.023438 -18.941406 33.359375 -20.675781 33.359375 -21.9375 C 33.359375 -23.175781 33.078125 -24.082031 32.515625 -24.65625 C 31.960938 -25.226562 31.164062 -25.535156 30.125 -25.578125 L 30.125 -26.328125 C 31.976562 -26.253906 33.601562 -26.21875 35 -26.21875 Z M 35 -26.21875 "/></g></g></g><g fill="#ffffff" fill-opacity="1"><g transform="translate(191.055899, 185.708121)"><g><path d="M 12.390625 -3.53125 C 14.191406 -3.53125 15.691406 -4.363281 16.890625 -6.03125 L 17.515625 -5.796875 C 16.972656 -4.066406 16.050781 -2.582031 14.75 -1.34375 C 13.445312 -0.101562 11.78125 0.515625 9.75 0.515625 C 7.144531 0.515625 5.0625 -0.285156 3.5 -1.890625 C 1.9375 -3.503906 1.15625 -6.082031 1.15625 -9.625 C 1.15625 -13.019531 2.023438 -15.566406 3.765625 -17.265625 C 5.515625 -18.972656 7.828125 -19.828125 10.703125 -19.828125 C 15.390625 -19.828125 17.734375 -17.046875 17.734375 -11.484375 L 8.140625 -11.484375 C 8.117188 -11.191406 8.109375 -10.75 8.109375 -10.15625 C 8.109375 -7.769531 8.519531 -6.066406 9.34375 -5.046875 C 10.175781 -4.035156 11.191406 -3.53125 12.390625 -3.53125 Z M 10.453125 -18.96875 C 9.066406 -18.96875 8.25 -16.710938 8 -12.203125 L 12.3125 -12.203125 C 12.332031 -14.179688 12.1875 -15.800781 11.875 -17.0625 C 11.570312 -18.332031 11.097656 -18.96875 10.453125 -18.96875 Z M 10.453125 -18.96875 "/></g></g></g><g fill="#ffffff" fill-opacity="1"><g transform="translate(209.757689, 185.708121)"><g><path d="M 9.453125 -3.453125 C 9.453125 -2.441406 9.601562 -1.742188 9.90625 -1.359375 C 10.21875 -0.972656 10.757812 -0.78125 11.53125 -0.78125 L 11.53125 0 C 8.851562 -0.101562 7.09375 -0.15625 6.25 -0.15625 C 5.40625 -0.15625 3.546875 -0.101562 0.671875 0 L 0.671875 -0.78125 C 1.441406 -0.78125 1.976562 -0.972656 2.28125 -1.359375 C 2.59375 -1.742188 2.75 -2.441406 2.75 -3.453125 L 2.75 -24.625 C 2.75 -25.757812 2.59375 -26.585938 2.28125 -27.109375 C 1.976562 -27.628906 1.441406 -27.890625 0.671875 -27.890625 L 0.671875 -28.671875 C 1.441406 -28.597656 2.207031 -28.5625 2.96875 -28.5625 C 5.550781 -28.5625 7.710938 -28.734375 9.453125 -29.078125 Z M 9.453125 -3.453125 "/></g></g></g><g fill="#ffffff" fill-opacity="1"><g transform="translate(221.952889, 185.708121)"><g><path d="M 9.453125 -3.453125 C 9.453125 -2.441406 9.601562 -1.742188 9.90625 -1.359375 C 10.21875 -0.972656 10.757812 -0.78125 11.53125 -0.78125 L 11.53125 0 C 8.851562 -0.101562 7.09375 -0.15625 6.25 -0.15625 C 5.40625 -0.15625 3.546875 -0.101562 0.671875 0 L 0.671875 -0.78125 C 1.441406 -0.78125 1.976562 -0.972656 2.28125 -1.359375 C 2.59375 -1.742188 2.75 -2.441406 2.75 -3.453125 L 2.75 -24.625 C 2.75 -25.757812 2.59375 -26.585938 2.28125 -27.109375 C 1.976562 -27.628906 1.441406 -27.890625 0.671875 -27.890625 L 0.671875 -28.671875 C 1.441406 -28.597656 2.207031 -28.5625 2.96875 -28.5625 C 5.550781 -28.5625 7.710938 -28.734375 9.453125 -29.078125 Z M 9.453125 -3.453125 "/></g></g></g><g fill="#ffffff" fill-opacity="1"><g transform="translate(234.148088, 185.708121)"><g><path d="M 5.984375 -29.078125 C 7.273438 -29.078125 8.273438 -28.800781 8.984375 -28.25 C 9.691406 -27.707031 10.046875 -26.914062 10.046875 -25.875 C 10.046875 -24.84375 9.691406 -24.050781 8.984375 -23.5 C 8.273438 -22.957031 7.273438 -22.6875 5.984375 -22.6875 C 4.671875 -22.6875 3.664062 -22.957031 2.96875 -23.5 C 2.28125 -24.050781 1.9375 -24.84375 1.9375 -25.875 C 1.9375 -26.914062 2.28125 -27.707031 2.96875 -28.25 C 3.664062 -28.800781 4.671875 -29.078125 5.984375 -29.078125 Z M 9.5625 -3.453125 C 9.5625 -2.441406 9.710938 -1.742188 10.015625 -1.359375 C 10.328125 -0.972656 10.867188 -0.78125 11.640625 -0.78125 L 11.640625 0 C 8.960938 -0.101562 7.203125 -0.15625 6.359375 -0.15625 C 5.515625 -0.15625 3.65625 -0.101562 0.78125 0 L 0.78125 -0.78125 C 1.550781 -0.78125 2.085938 -0.972656 2.390625 -1.359375 C 2.703125 -1.742188 2.859375 -2.441406 2.859375 -3.453125 L 2.859375 -15.25 C 2.859375 -16.382812 2.703125 -17.210938 2.390625 -17.734375 C 2.085938 -18.253906 1.550781 -18.515625 0.78125 -18.515625 L 0.78125 -19.296875 C 1.570312 -19.222656 2.34375 -19.1875 3.09375 -19.1875 C 5.664062 -19.1875 7.820312 -19.359375 9.5625 -19.703125 Z M 9.5625 -3.453125 "/></g></g></g><g fill="#ffffff" fill-opacity="1"><g transform="translate(246.41765, 185.708121)"><g><path d="M 15.46875 -19.828125 C 17.445312 -19.828125 18.847656 -19.328125 19.671875 -18.328125 C 20.046875 -17.890625 20.316406 -17.289062 20.484375 -16.53125 C 20.660156 -15.769531 20.75 -14.769531 20.75 -13.53125 L 20.75 -3.453125 C 20.75 -2.441406 20.90625 -1.742188 21.21875 -1.359375 C 21.53125 -0.972656 22.066406 -0.78125 22.828125 -0.78125 L 22.828125 0 C 20.148438 -0.101562 18.414062 -0.15625 17.625 -0.15625 C 16.78125 -0.15625 15.019531 -0.101562 12.34375 0 L 12.34375 -0.78125 C 12.988281 -0.78125 13.4375 -0.972656 13.6875 -1.359375 C 13.9375 -1.742188 14.0625 -2.441406 14.0625 -3.453125 L 14.0625 -15.546875 C 14.0625 -16.335938 13.914062 -16.925781 13.625 -17.3125 C 13.34375 -17.695312 12.878906 -17.890625 12.234375 -17.890625 C 11.515625 -17.890625 10.890625 -17.632812 10.359375 -17.125 C 9.828125 -16.613281 9.5625 -15.972656 9.5625 -15.203125 L 9.5625 -3.453125 C 9.5625 -2.441406 9.679688 -1.742188 9.921875 -1.359375 C 10.171875 -0.972656 10.617188 -0.78125 11.265625 -0.78125 L 11.265625 0 C 8.785156 -0.101562 7.148438 -0.15625 6.359375 -0.15625 C 5.515625 -0.15625 3.65625 -0.101562 0.78125 0 L 0.78125 -0.78125 C 1.550781 -0.78125 2.085938 -0.972656 2.390625 -1.359375 C 2.703125 -1.742188 2.859375 -2.441406 2.859375 -3.453125 L 2.859375 -15.25 C 2.859375 -16.382812 2.703125 -17.210938 2.390625 -17.734375 C 2.085938 -18.253906 1.550781 -18.515625 0.78125 -18.515625 L 0.78125 -19.296875 C 1.570312 -19.222656 2.34375 -19.1875 3.09375 -19.1875 C 5.664062 -19.1875 7.820312 -19.359375 9.5625 -19.703125 L 9.5625 -17.03125 C 10.675781 -18.894531 12.644531 -19.828125 15.46875 -19.828125 Z M 15.46875 -19.828125 "/></g></g></g><g fill="#ffffff" fill-opacity="1"><g transform="translate(269.655455, 185.708121)"><g><path d="M 19.1875 -15.546875 C 18.664062 -15.546875 18.210938 -15.722656 17.828125 -16.078125 C 17.441406 -16.441406 17.25 -16.945312 17.25 -17.59375 C 17.25 -18.1875 17.425781 -18.832031 17.78125 -19.53125 C 16.6875 -19.082031 15.878906 -18.445312 15.359375 -17.625 C 16.273438 -16.65625 16.734375 -15.40625 16.734375 -13.875 C 16.734375 -11.914062 16.007812 -10.429688 14.5625 -9.421875 C 13.113281 -8.421875 11.171875 -7.921875 8.734375 -7.921875 C 8.265625 -7.921875 7.921875 -7.929688 7.703125 -7.953125 C 7.054688 -7.503906 6.734375 -6.984375 6.734375 -6.390625 C 6.734375 -5.597656 7.175781 -5.203125 8.0625 -5.203125 L 11.671875 -5.203125 C 14.203125 -5.203125 16.179688 -4.773438 17.609375 -3.921875 C 19.035156 -3.066406 19.75 -1.734375 19.75 0.078125 C 19.75 1.367188 19.332031 2.53125 18.5 3.5625 C 17.664062 4.601562 16.390625 5.429688 14.671875 6.046875 C 12.953125 6.671875 10.800781 6.984375 8.21875 6.984375 C 5.664062 6.984375 3.65625 6.695312 2.1875 6.125 C 0.726562 5.5625 0 4.757812 0 3.71875 C 0 3 0.359375 2.34375 1.078125 1.75 C 1.796875 1.15625 2.882812 0.679688 4.34375 0.328125 L 4.71875 0.9375 C 4.050781 1.75 3.71875 2.539062 3.71875 3.3125 C 3.71875 4.28125 4.15625 5.03125 5.03125 5.5625 C 5.914062 6.09375 7.148438 6.359375 8.734375 6.359375 C 10.367188 6.359375 11.625 6.03125 12.5 5.375 C 13.382812 4.71875 13.828125 3.84375 13.828125 2.75 C 13.828125 1.976562 13.535156 1.363281 12.953125 0.90625 C 12.378906 0.445312 11.359375 0.21875 9.890625 0.21875 L 7.890625 0.21875 C 6.203125 0.21875 4.910156 -0.0976562 4.015625 -0.734375 C 3.117188 -1.378906 2.671875 -2.25 2.671875 -3.34375 C 2.671875 -4.332031 3.023438 -5.195312 3.734375 -5.9375 C 4.441406 -6.6875 5.46875 -7.382812 6.8125 -8.03125 C 4.925781 -8.28125 3.441406 -8.894531 2.359375 -9.875 C 1.285156 -10.851562 0.75 -12.1875 0.75 -13.875 C 0.75 -15.832031 1.472656 -17.3125 2.921875 -18.3125 C 4.367188 -19.320312 6.304688 -19.828125 8.734375 -19.828125 C 11.335938 -19.828125 13.347656 -19.28125 14.765625 -18.1875 C 15.234375 -18.832031 15.800781 -19.335938 16.46875 -19.703125 C 17.144531 -20.078125 17.851562 -20.265625 18.59375 -20.265625 C 19.414062 -20.265625 20.046875 -20.035156 20.484375 -19.578125 C 20.929688 -19.117188 21.15625 -18.53125 21.15625 -17.8125 C 21.15625 -17.113281 20.96875 -16.5625 20.59375 -16.15625 C 20.226562 -15.75 19.757812 -15.546875 19.1875 -15.546875 Z M 8.734375 -8.59375 C 9.234375 -8.59375 9.613281 -8.992188 9.875 -9.796875 C 10.132812 -10.597656 10.265625 -11.957031 10.265625 -13.875 C 10.265625 -15.78125 10.132812 -17.132812 9.875 -17.9375 C 9.613281 -18.75 9.234375 -19.15625 8.734375 -19.15625 C 8.242188 -19.15625 7.867188 -18.75 7.609375 -17.9375 C 7.347656 -17.132812 7.21875 -15.78125 7.21875 -13.875 C 7.21875 -11.957031 7.347656 -10.597656 7.609375 -9.796875 C 7.867188 -8.992188 8.242188 -8.59375 8.734375 -8.59375 Z M 8.734375 -8.59375 "/></g></g></g><g fill="#ffffff" fill-opacity="1"><g transform="translate(290.848342, 185.708121)"><g><path d="M 9.375 -19.296875 L 13.015625 -19.296875 L 13.015625 -18.5625 L 9.375 -18.5625 L 9.375 -3.125 C 9.375 -2.625 9.457031 -2.273438 9.625 -2.078125 C 9.800781 -1.878906 10.085938 -1.78125 10.484375 -1.78125 C 10.785156 -1.78125 11.117188 -1.867188 11.484375 -2.046875 C 11.859375 -2.222656 12.195312 -2.492188 12.5 -2.859375 L 13.046875 -2.421875 C 11.910156 -0.460938 10.148438 0.515625 7.765625 0.515625 C 6.054688 0.515625 4.78125 0.09375 3.9375 -0.75 C 3.414062 -1.269531 3.070312 -1.910156 2.90625 -2.671875 C 2.75 -3.441406 2.671875 -4.519531 2.671875 -5.90625 L 2.671875 -18.5625 L -0.15625 -18.5625 L -0.15625 -19.296875 L 2.671875 -19.296875 L 2.671875 -23.6875 C 4.015625 -23.6875 5.222656 -23.816406 6.296875 -24.078125 C 7.378906 -24.335938 8.40625 -24.753906 9.375 -25.328125 Z M 9.375 -19.296875 "/></g></g></g><g fill="#ffffff" fill-opacity="1"><g transform="translate(303.861513, 185.708121)"><g><path d="M 10.703125 -19.828125 C 13.753906 -19.828125 16.109375 -19.023438 17.765625 -17.421875 C 19.429688 -15.828125 20.265625 -13.226562 20.265625 -9.625 C 20.265625 -6.03125 19.429688 -3.441406 17.765625 -1.859375 C 16.109375 -0.273438 13.753906 0.515625 10.703125 0.515625 C 7.660156 0.515625 5.304688 -0.273438 3.640625 -1.859375 C 1.984375 -3.441406 1.15625 -6.03125 1.15625 -9.625 C 1.15625 -13.226562 1.984375 -15.828125 3.640625 -17.421875 C 5.304688 -19.023438 7.660156 -19.828125 10.703125 -19.828125 Z M 10.703125 -19.078125 C 9.910156 -19.078125 9.28125 -18.296875 8.8125 -16.734375 C 8.34375 -15.171875 8.109375 -12.800781 8.109375 -9.625 C 8.109375 -6.457031 8.34375 -4.097656 8.8125 -2.546875 C 9.28125 -0.992188 9.910156 -0.21875 10.703125 -0.21875 C 11.503906 -0.21875 12.140625 -0.992188 12.609375 -2.546875 C 13.078125 -4.097656 13.3125 -6.457031 13.3125 -9.625 C 13.3125 -12.800781 13.078125 -15.171875 12.609375 -16.734375 C 12.140625 -18.296875 11.503906 -19.078125 10.703125 -19.078125 Z M 10.703125 -19.078125 "/></g></g></g><g fill="#ffffff" fill-opacity="1"><g transform="translate(325.277477, 185.708121)"><g><path d="M 15.46875 -19.828125 C 17.445312 -19.828125 18.847656 -19.328125 19.671875 -18.328125 C 20.046875 -17.890625 20.316406 -17.289062 20.484375 -16.53125 C 20.660156 -15.769531 20.75 -14.769531 20.75 -13.53125 L 20.75 -3.453125 C 20.75 -2.441406 20.90625 -1.742188 21.21875 -1.359375 C 21.53125 -0.972656 22.066406 -0.78125 22.828125 -0.78125 L 22.828125 0 C 20.148438 -0.101562 18.414062 -0.15625 17.625 -0.15625 C 16.78125 -0.15625 15.019531 -0.101562 12.34375 0 L 12.34375 -0.78125 C 12.988281 -0.78125 13.4375 -0.972656 13.6875 -1.359375 C 13.9375 -1.742188 14.0625 -2.441406 14.0625 -3.453125 L 14.0625 -15.546875 C 14.0625 -16.335938 13.914062 -16.925781 13.625 -17.3125 C 13.34375 -17.695312 12.878906 -17.890625 12.234375 -17.890625 C 11.515625 -17.890625 10.890625 -17.632812 10.359375 -17.125 C 9.828125 -16.613281 9.5625 -15.972656 9.5625 -15.203125 L 9.5625 -3.453125 C 9.5625 -2.441406 9.679688 -1.742188 9.921875 -1.359375 C 10.171875 -0.972656 10.617188 -0.78125 11.265625 -0.78125 L 11.265625 0 C 8.785156 -0.101562 7.148438 -0.15625 6.359375 -0.15625 C 5.515625 -0.15625 3.65625 -0.101562 0.78125 0 L 0.78125 -0.78125 C 1.550781 -0.78125 2.085938 -0.972656 2.390625 -1.359375 C 2.703125 -1.742188 2.859375 -2.441406 2.859375 -3.453125 L 2.859375 -15.25 C 2.859375 -16.382812 2.703125 -17.210938 2.390625 -17.734375 C 2.085938 -18.253906 1.550781 -18.515625 0.78125 -18.515625 L 0.78125 -19.296875 C 1.570312 -19.222656 2.34375 -19.1875 3.09375 -19.1875 C 5.664062 -19.1875 7.820312 -19.359375 9.5625 -19.703125 L 9.5625 -17.03125 C 10.675781 -18.894531 12.644531 -19.828125 15.46875 -19.828125 Z M 15.46875 -19.828125 "/></g></g></g><g fill="#ffffff" fill-opacity="1"><g transform="translate(143.982417, 237.30118)"><g><path d="M 21.828125 -26.328125 C 21.648438 -23.992188 21.5625 -21.910156 21.5625 -20.078125 C 21.5625 -18.941406 21.601562 -18.050781 21.6875 -17.40625 L 20.828125 -17.40625 C 20.234375 -20.28125 19.320312 -22.34375 18.09375 -23.59375 C 16.863281 -24.84375 15.492188 -25.46875 13.984375 -25.46875 L 13.5 -25.46875 C 12.832031 -25.46875 12.34375 -25.410156 12.03125 -25.296875 C 11.71875 -25.191406 11.503906 -24.984375 11.390625 -24.671875 C 11.285156 -24.359375 11.234375 -23.84375 11.234375 -23.125 L 11.234375 -13.609375 L 11.609375 -13.609375 C 12.890625 -13.609375 13.988281 -14.113281 14.90625 -15.125 C 15.820312 -16.144531 16.40625 -17.273438 16.65625 -18.515625 L 17.515625 -18.515625 C 17.441406 -17.472656 17.40625 -16.3125 17.40625 -15.03125 L 17.40625 -13.234375 C 17.40625 -11.972656 17.476562 -10.210938 17.625 -7.953125 L 16.765625 -7.953125 C 16.546875 -9.367188 15.96875 -10.539062 15.03125 -11.46875 C 14.101562 -12.394531 12.960938 -12.859375 11.609375 -12.859375 L 11.234375 -12.859375 L 11.234375 -4.3125 C 11.234375 -3.269531 11.335938 -2.515625 11.546875 -2.046875 C 11.753906 -1.578125 12.132812 -1.257812 12.6875 -1.09375 C 13.25 -0.9375 14.140625 -0.859375 15.359375 -0.859375 L 15.359375 0 C 12.015625 -0.0703125 9.460938 -0.109375 7.703125 -0.109375 C 6.535156 -0.109375 4.910156 -0.0820312 2.828125 -0.03125 L 1.046875 0 L 1.046875 -0.75 C 1.835938 -0.789062 2.410156 -0.882812 2.765625 -1.03125 C 3.128906 -1.1875 3.375 -1.472656 3.5 -1.890625 C 3.625 -2.316406 3.6875 -3 3.6875 -3.9375 L 3.6875 -22.390625 C 3.6875 -23.328125 3.613281 -24.003906 3.46875 -24.421875 C 3.332031 -24.847656 3.09375 -25.132812 2.75 -25.28125 C 2.40625 -25.4375 1.835938 -25.535156 1.046875 -25.578125 L 1.046875 -26.328125 C 3.921875 -26.253906 8.257812 -26.21875 14.0625 -26.21875 C 17.707031 -26.21875 20.296875 -26.253906 21.828125 -26.328125 Z M 21.828125 -26.328125 "/></g></g></g><g fill="#ffffff" fill-opacity="1"><g transform="translate(166.588158, 237.30118)"><g><path d="M 20.375 -4.046875 C 20.375 -2.910156 20.53125 -2.082031 20.84375 -1.5625 C 21.15625 -1.039062 21.695312 -0.78125 22.46875 -0.78125 L 22.46875 0 C 21.695312 -0.0703125 20.925781 -0.109375 20.15625 -0.109375 C 17.570312 -0.109375 15.414062 0.0625 13.6875 0.40625 L 13.6875 -2.265625 C 12.570312 -0.410156 10.597656 0.515625 7.765625 0.515625 C 5.785156 0.515625 4.382812 0.0195312 3.5625 -0.96875 C 3.195312 -1.414062 2.925781 -2.015625 2.75 -2.765625 C 2.570312 -3.523438 2.484375 -4.523438 2.484375 -5.765625 L 2.484375 -15.25 C 2.484375 -16.382812 2.328125 -17.210938 2.015625 -17.734375 C 1.710938 -18.253906 1.175781 -18.515625 0.40625 -18.515625 L 0.40625 -19.296875 C 1.175781 -19.222656 1.945312 -19.1875 2.71875 -19.1875 C 5.289062 -19.1875 7.445312 -19.359375 9.1875 -19.703125 L 9.1875 -3.75 C 9.1875 -2.957031 9.328125 -2.367188 9.609375 -1.984375 C 9.898438 -1.597656 10.363281 -1.40625 11 -1.40625 C 11.726562 -1.40625 12.359375 -1.660156 12.890625 -2.171875 C 13.421875 -2.679688 13.6875 -3.320312 13.6875 -4.09375 L 13.6875 -15.25 C 13.6875 -16.382812 13.53125 -17.210938 13.21875 -17.734375 C 12.90625 -18.253906 12.367188 -18.515625 11.609375 -18.515625 L 11.609375 -19.296875 C 12.367188 -19.222656 13.132812 -19.1875 13.90625 -19.1875 C 16.488281 -19.1875 18.644531 -19.359375 20.375 -19.703125 Z M 20.375 -4.046875 "/></g></g></g><g fill="#ffffff" fill-opacity="1"><g transform="translate(189.714429, 237.30118)"><g><path d="M 14.359375 -19.828125 C 15.566406 -19.828125 16.4375 -19.453125 16.96875 -18.703125 C 17.507812 -17.960938 17.78125 -17.082031 17.78125 -16.0625 C 17.78125 -14.945312 17.460938 -14.0625 16.828125 -13.40625 C 16.191406 -12.75 15.367188 -12.421875 14.359375 -12.421875 C 13.285156 -12.421875 12.460938 -12.660156 11.890625 -13.140625 C 11.328125 -13.628906 11.046875 -14.28125 11.046875 -15.09375 C 11.046875 -16.5625 11.675781 -17.71875 12.9375 -18.5625 C 12.488281 -18.5625 12.09375 -18.472656 11.75 -18.296875 C 11.132812 -18.023438 10.613281 -17.582031 10.1875 -16.96875 C 9.769531 -16.363281 9.5625 -15.703125 9.5625 -14.984375 L 9.5625 -3.828125 C 9.5625 -2.660156 9.800781 -1.859375 10.28125 -1.421875 C 10.757812 -0.992188 11.582031 -0.78125 12.75 -0.78125 L 12.75 0 C 12.425781 0 12.15625 -0.0078125 11.9375 -0.03125 C 9.332031 -0.113281 7.597656 -0.15625 6.734375 -0.15625 C 5.960938 -0.15625 4.238281 -0.113281 1.5625 -0.03125 C 1.363281 -0.0078125 1.101562 0 0.78125 0 L 0.78125 -0.78125 C 1.550781 -0.78125 2.085938 -0.972656 2.390625 -1.359375 C 2.703125 -1.742188 2.859375 -2.441406 2.859375 -3.453125 L 2.859375 -15.25 C 2.859375 -16.382812 2.703125 -17.210938 2.390625 -17.734375 C 2.085938 -18.253906 1.550781 -18.515625 0.78125 -18.515625 L 0.78125 -19.296875 C 1.570312 -19.222656 2.34375 -19.1875 3.09375 -19.1875 C 5.664062 -19.1875 7.820312 -19.359375 9.5625 -19.703125 L 9.5625 -17.03125 C 10.5 -18.894531 12.097656 -19.828125 14.359375 -19.828125 Z M 14.359375 -19.828125 "/></g></g></g><g fill="#ffffff" fill-opacity="1"><g transform="translate(207.598248, 237.30118)"><g><path d="M 15.46875 -19.828125 C 17.445312 -19.828125 18.847656 -19.328125 19.671875 -18.328125 C 20.046875 -17.890625 20.316406 -17.289062 20.484375 -16.53125 C 20.660156 -15.769531 20.75 -14.769531 20.75 -13.53125 L 20.75 -3.453125 C 20.75 -2.441406 20.90625 -1.742188 21.21875 -1.359375 C 21.53125 -0.972656 22.066406 -0.78125 22.828125 -0.78125 L 22.828125 0 C 20.148438 -0.101562 18.414062 -0.15625 17.625 -0.15625 C 16.78125 -0.15625 15.019531 -0.101562 12.34375 0 L 12.34375 -0.78125 C 12.988281 -0.78125 13.4375 -0.972656 13.6875 -1.359375 C 13.9375 -1.742188 14.0625 -2.441406 14.0625 -3.453125 L 14.0625 -15.546875 C 14.0625 -16.335938 13.914062 -16.925781 13.625 -17.3125 C 13.34375 -17.695312 12.878906 -17.890625 12.234375 -17.890625 C 11.515625 -17.890625 10.890625 -17.632812 10.359375 -17.125 C 9.828125 -16.613281 9.5625 -15.972656 9.5625 -15.203125 L 9.5625 -3.453125 C 9.5625 -2.441406 9.679688 -1.742188 9.921875 -1.359375 C 10.171875 -0.972656 10.617188 -0.78125 11.265625 -0.78125 L 11.265625 0 C 8.785156 -0.101562 7.148438 -0.15625 6.359375 -0.15625 C 5.515625 -0.15625 3.65625 -0.101562 0.78125 0 L 0.78125 -0.78125 C 1.550781 -0.78125 2.085938 -0.972656 2.390625 -1.359375 C 2.703125 -1.742188 2.859375 -2.441406 2.859375 -3.453125 L 2.859375 -15.25 C 2.859375 -16.382812 2.703125 -17.210938 2.390625 -17.734375 C 2.085938 -18.253906 1.550781 -18.515625 0.78125 -18.515625 L 0.78125 -19.296875 C 1.570312 -19.222656 2.34375 -19.1875 3.09375 -19.1875 C 5.664062 -19.1875 7.820312 -19.359375 9.5625 -19.703125 L 9.5625 -17.03125 C 10.675781 -18.894531 12.644531 -19.828125 15.46875 -19.828125 Z M 15.46875 -19.828125 "/></g></g></g><g fill="#ffffff" fill-opacity="1"><g transform="translate(230.836053, 237.30118)"><g><path d="M 5.984375 -29.078125 C 7.273438 -29.078125 8.273438 -28.800781 8.984375 -28.25 C 9.691406 -27.707031 10.046875 -26.914062 10.046875 -25.875 C 10.046875 -24.84375 9.691406 -24.050781 8.984375 -23.5 C 8.273438 -22.957031 7.273438 -22.6875 5.984375 -22.6875 C 4.671875 -22.6875 3.664062 -22.957031 2.96875 -23.5 C 2.28125 -24.050781 1.9375 -24.84375 1.9375 -25.875 C 1.9375 -26.914062 2.28125 -27.707031 2.96875 -28.25 C 3.664062 -28.800781 4.671875 -29.078125 5.984375 -29.078125 Z M 9.5625 -3.453125 C 9.5625 -2.441406 9.710938 -1.742188 10.015625 -1.359375 C 10.328125 -0.972656 10.867188 -0.78125 11.640625 -0.78125 L 11.640625 0 C 8.960938 -0.101562 7.203125 -0.15625 6.359375 -0.15625 C 5.515625 -0.15625 3.65625 -0.101562 0.78125 0 L 0.78125 -0.78125 C 1.550781 -0.78125 2.085938 -0.972656 2.390625 -1.359375 C 2.703125 -1.742188 2.859375 -2.441406 2.859375 -3.453125 L 2.859375 -15.25 C 2.859375 -16.382812 2.703125 -17.210938 2.390625 -17.734375 C 2.085938 -18.253906 1.550781 -18.515625 0.78125 -18.515625 L 0.78125 -19.296875 C 1.570312 -19.222656 2.34375 -19.1875 3.09375 -19.1875 C 5.664062 -19.1875 7.820312 -19.359375 9.5625 -19.703125 Z M 9.5625 -3.453125 "/></g></g></g><g fill="#ffffff" fill-opacity="1"><g transform="translate(243.105615, 237.30118)"><g><path d="M 8.59375 -19.828125 C 9.5625 -19.828125 10.472656 -19.71875 11.328125 -19.5 C 12.179688 -19.289062 12.832031 -19.0625 13.28125 -18.8125 C 13.550781 -18.664062 13.773438 -18.59375 13.953125 -18.59375 C 14.460938 -18.59375 14.769531 -18.988281 14.875 -19.78125 L 15.625 -19.78125 C 15.519531 -18.488281 15.46875 -16.257812 15.46875 -13.09375 L 14.71875 -13.09375 C 14.519531 -14.726562 14.054688 -16.109375 13.328125 -17.234375 C 12.597656 -18.359375 11.539062 -18.921875 10.15625 -18.921875 C 9.53125 -18.921875 9.003906 -18.734375 8.578125 -18.359375 C 8.160156 -17.992188 7.953125 -17.488281 7.953125 -16.84375 C 7.953125 -16.03125 8.222656 -15.304688 8.765625 -14.671875 C 9.316406 -14.035156 10.175781 -13.257812 11.34375 -12.34375 C 11.394531 -12.320312 11.753906 -12.035156 12.421875 -11.484375 C 13.804688 -10.347656 14.820312 -9.335938 15.46875 -8.453125 C 16.113281 -7.578125 16.4375 -6.492188 16.4375 -5.203125 C 16.4375 -4.109375 16.097656 -3.125 15.421875 -2.25 C 14.753906 -1.375 13.84375 -0.691406 12.6875 -0.203125 C 11.539062 0.273438 10.285156 0.515625 8.921875 0.515625 C 7.359375 0.515625 6.082031 0.207031 5.09375 -0.40625 C 4.675781 -0.632812 4.328125 -0.796875 4.046875 -0.890625 C 3.773438 -0.992188 3.503906 -1.046875 3.234375 -1.046875 C 2.765625 -1.046875 2.414062 -0.609375 2.1875 0.265625 L 1.453125 0.265625 C 1.546875 -1.148438 1.59375 -3.628906 1.59375 -7.171875 L 2.34375 -7.171875 C 2.5625 -5.140625 3.101562 -3.503906 3.96875 -2.265625 C 4.84375 -1.023438 5.9375 -0.40625 7.25 -0.40625 C 7.875 -0.40625 8.390625 -0.578125 8.796875 -0.921875 C 9.203125 -1.273438 9.40625 -1.785156 9.40625 -2.453125 C 9.40625 -3.148438 9.257812 -3.769531 8.96875 -4.3125 C 8.6875 -4.851562 8.34375 -5.34375 7.9375 -5.78125 C 7.53125 -6.21875 6.867188 -6.84375 5.953125 -7.65625 C 4.910156 -8.625 4.113281 -9.394531 3.5625 -9.96875 C 3.019531 -10.539062 2.554688 -11.203125 2.171875 -11.953125 C 1.785156 -12.710938 1.59375 -13.550781 1.59375 -14.46875 C 1.59375 -15.53125 1.914062 -16.46875 2.5625 -17.28125 C 3.207031 -18.101562 4.0625 -18.734375 5.125 -19.171875 C 6.195312 -19.609375 7.351562 -19.828125 8.59375 -19.828125 Z M 8.59375 -19.828125 "/></g></g></g><g fill="#ffffff" fill-opacity="1"><g transform="translate(260.654811, 237.30118)"><g><path d="M 9.453125 -17.03125 C 10.566406 -18.894531 12.535156 -19.828125 15.359375 -19.828125 C 17.335938 -19.828125 18.738281 -19.328125 19.5625 -18.328125 C 19.9375 -17.890625 20.207031 -17.289062 20.375 -16.53125 C 20.550781 -15.769531 20.640625 -14.769531 20.640625 -13.53125 L 20.640625 -3.453125 C 20.640625 -2.441406 20.789062 -1.742188 21.09375 -1.359375 C 21.40625 -0.972656 21.945312 -0.78125 22.71875 -0.78125 L 22.71875 0 C 20.039062 -0.101562 18.304688 -0.15625 17.515625 -0.15625 C 16.671875 -0.15625 14.910156 -0.101562 12.234375 0 L 12.234375 -0.78125 C 12.878906 -0.78125 13.328125 -0.972656 13.578125 -1.359375 C 13.828125 -1.742188 13.953125 -2.441406 13.953125 -3.453125 L 13.953125 -15.546875 C 13.953125 -16.335938 13.804688 -16.925781 13.515625 -17.3125 C 13.234375 -17.695312 12.769531 -17.890625 12.125 -17.890625 C 11.40625 -17.890625 10.78125 -17.632812 10.25 -17.125 C 9.71875 -16.613281 9.453125 -15.972656 9.453125 -15.203125 L 9.453125 -3.453125 C 9.453125 -2.441406 9.570312 -1.742188 9.8125 -1.359375 C 10.0625 -0.972656 10.507812 -0.78125 11.15625 -0.78125 L 11.15625 0 C 8.675781 -0.101562 7.039062 -0.15625 6.25 -0.15625 C 5.40625 -0.15625 3.546875 -0.101562 0.671875 0 L 0.671875 -0.78125 C 1.441406 -0.78125 1.976562 -0.972656 2.28125 -1.359375 C 2.59375 -1.742188 2.75 -2.441406 2.75 -3.453125 L 2.75 -24.625 C 2.75 -25.757812 2.59375 -26.585938 2.28125 -27.109375 C 1.976562 -27.628906 1.441406 -27.890625 0.671875 -27.890625 L 0.671875 -28.671875 C 1.441406 -28.597656 2.207031 -28.5625 2.96875 -28.5625 C 5.550781 -28.5625 7.710938 -28.734375 9.453125 -29.078125 Z M 9.453125 -17.03125 "/></g></g></g><g fill="#ffffff" fill-opacity="1"><g transform="translate(283.781082, 237.30118)"><g><path d="M 5.984375 -29.078125 C 7.273438 -29.078125 8.273438 -28.800781 8.984375 -28.25 C 9.691406 -27.707031 10.046875 -26.914062 10.046875 -25.875 C 10.046875 -24.84375 9.691406 -24.050781 8.984375 -23.5 C 8.273438 -22.957031 7.273438 -22.6875 5.984375 -22.6875 C 4.671875 -22.6875 3.664062 -22.957031 2.96875 -23.5 C 2.28125 -24.050781 1.9375 -24.84375 1.9375 -25.875 C 1.9375 -26.914062 2.28125 -27.707031 2.96875 -28.25 C 3.664062 -28.800781 4.671875 -29.078125 5.984375 -29.078125 Z M 9.5625 -3.453125 C 9.5625 -2.441406 9.710938 -1.742188 10.015625 -1.359375 C 10.328125 -0.972656 10.867188 -0.78125 11.640625 -0.78125 L 11.640625 0 C 8.960938 -0.101562 7.203125 -0.15625 6.359375 -0.15625 C 5.515625 -0.15625 3.65625 -0.101562 0.78125 0 L 0.78125 -0.78125 C 1.550781 -0.78125 2.085938 -0.972656 2.390625 -1.359375 C 2.703125 -1.742188 2.859375 -2.441406 2.859375 -3.453125 L 2.859375 -15.25 C 2.859375 -16.382812 2.703125 -17.210938 2.390625 -17.734375 C 2.085938 -18.253906 1.550781 -18.515625 0.78125 -18.515625 L 0.78125 -19.296875 C 1.570312 -19.222656 2.34375 -19.1875 3.09375 -19.1875 C 5.664062 -19.1875 7.820312 -19.359375 9.5625 -19.703125 Z M 9.5625 -3.453125 "/></g></g></g><g fill="#ffffff" fill-opacity="1"><g transform="translate(296.050644, 237.30118)"><g><path d="M 15.46875 -19.828125 C 17.445312 -19.828125 18.847656 -19.328125 19.671875 -18.328125 C 20.046875 -17.890625 20.316406 -17.289062 20.484375 -16.53125 C 20.660156 -15.769531 20.75 -14.769531 20.75 -13.53125 L 20.75 -3.453125 C 20.75 -2.441406 20.90625 -1.742188 21.21875 -1.359375 C 21.53125 -0.972656 22.066406 -0.78125 22.828125 -0.78125 L 22.828125 0 C 20.148438 -0.101562 18.414062 -0.15625 17.625 -0.15625 C 16.78125 -0.15625 15.019531 -0.101562 12.34375 0 L 12.34375 -0.78125 C 12.988281 -0.78125 13.4375 -0.972656 13.6875 -1.359375 C 13.9375 -1.742188 14.0625 -2.441406 14.0625 -3.453125 L 14.0625 -15.546875 C 14.0625 -16.335938 13.914062 -16.925781 13.625 -17.3125 C 13.34375 -17.695312 12.878906 -17.890625 12.234375 -17.890625 C 11.515625 -17.890625 10.890625 -17.632812 10.359375 -17.125 C 9.828125 -16.613281 9.5625 -15.972656 9.5625 -15.203125 L 9.5625 -3.453125 C 9.5625 -2.441406 9.679688 -1.742188 9.921875 -1.359375 C 10.171875 -0.972656 10.617188 -0.78125 11.265625 -0.78125 L 11.265625 0 C 8.785156 -0.101562 7.148438 -0.15625 6.359375 -0.15625 C 5.515625 -0.15625 3.65625 -0.101562 0.78125 0 L 0.78125 -0.78125 C 1.550781 -0.78125 2.085938 -0.972656 2.390625 -1.359375 C 2.703125 -1.742188 2.859375 -2.441406 2.859375 -3.453125 L 2.859375 -15.25 C 2.859375 -16.382812 2.703125 -17.210938 2.390625 -17.734375 C 2.085938 -18.253906 1.550781 -18.515625 0.78125 -18.515625 L 0.78125 -19.296875 C 1.570312 -19.222656 2.34375 -19.1875 3.09375 -19.1875 C 5.664062 -19.1875 7.820312 -19.359375 9.5625 -19.703125 L 9.5625 -17.03125 C 10.675781 -18.894531 12.644531 -19.828125 15.46875 -19.828125 Z M 15.46875 -19.828125 "/></g></g></g><g fill="#ffffff" fill-opacity="1"><g transform="translate(319.288449, 237.30118)"><g><path d="M 19.1875 -15.546875 C 18.664062 -15.546875 18.210938 -15.722656 17.828125 -16.078125 C 17.441406 -16.441406 17.25 -16.945312 17.25 -17.59375 C 17.25 -18.1875 17.425781 -18.832031 17.78125 -19.53125 C 16.6875 -19.082031 15.878906 -18.445312 15.359375 -17.625 C 16.273438 -16.65625 16.734375 -15.40625 16.734375 -13.875 C 16.734375 -11.914062 16.007812 -10.429688 14.5625 -9.421875 C 13.113281 -8.421875 11.171875 -7.921875 8.734375 -7.921875 C 8.265625 -7.921875 7.921875 -7.929688 7.703125 -7.953125 C 7.054688 -7.503906 6.734375 -6.984375 6.734375 -6.390625 C 6.734375 -5.597656 7.175781 -5.203125 8.0625 -5.203125 L 11.671875 -5.203125 C 14.203125 -5.203125 16.179688 -4.773438 17.609375 -3.921875 C 19.035156 -3.066406 19.75 -1.734375 19.75 0.078125 C 19.75 1.367188 19.332031 2.53125 18.5 3.5625 C 17.664062 4.601562 16.390625 5.429688 14.671875 6.046875 C 12.953125 6.671875 10.800781 6.984375 8.21875 6.984375 C 5.664062 6.984375 3.65625 6.695312 2.1875 6.125 C 0.726562 5.5625 0 4.757812 0 3.71875 C 0 3 0.359375 2.34375 1.078125 1.75 C 1.796875 1.15625 2.882812 0.679688 4.34375 0.328125 L 4.71875 0.9375 C 4.050781 1.75 3.71875 2.539062 3.71875 3.3125 C 3.71875 4.28125 4.15625 5.03125 5.03125 5.5625 C 5.914062 6.09375 7.148438 6.359375 8.734375 6.359375 C 10.367188 6.359375 11.625 6.03125 12.5 5.375 C 13.382812 4.71875 13.828125 3.84375 13.828125 2.75 C 13.828125 1.976562 13.535156 1.363281 12.953125 0.90625 C 12.378906 0.445312 11.359375 0.21875 9.890625 0.21875 L 7.890625 0.21875 C 6.203125 0.21875 4.910156 -0.0976562 4.015625 -0.734375 C 3.117188 -1.378906 2.671875 -2.25 2.671875 -3.34375 C 2.671875 -4.332031 3.023438 -5.195312 3.734375 -5.9375 C 4.441406 -6.6875 5.46875 -7.382812 6.8125 -8.03125 C 4.925781 -8.28125 3.441406 -8.894531 2.359375 -9.875 C 1.285156 -10.851562 0.75 -12.1875 0.75 -13.875 C 0.75 -15.832031 1.472656 -17.3125 2.921875 -18.3125 C 4.367188 -19.320312 6.304688 -19.828125 8.734375 -19.828125 C 11.335938 -19.828125 13.347656 -19.28125 14.765625 -18.1875 C 15.234375 -18.832031 15.800781 -19.335938 16.46875 -19.703125 C 17.144531 -20.078125 17.851562 -20.265625 18.59375 -20.265625 C 19.414062 -20.265625 20.046875 -20.035156 20.484375 -19.578125 C 20.929688 -19.117188 21.15625 -18.53125 21.15625 -17.8125 C 21.15625 -17.113281 20.96875 -16.5625 20.59375 -16.15625 C 20.226562 -15.75 19.757812 -15.546875 19.1875 -15.546875 Z M 8.734375 -8.59375 C 9.234375 -8.59375 9.613281 -8.992188 9.875 -9.796875 C 10.132812 -10.597656 10.265625 -11.957031 10.265625 -13.875 C 10.265625 -15.78125 10.132812 -17.132812 9.875 -17.9375 C 9.613281 -18.75 9.234375 -19.15625 8.734375 -19.15625 C 8.242188 -19.15625 7.867188 -18.75 7.609375 -17.9375 C 7.347656 -17.132812 7.21875 -15.78125 7.21875 -13.875 C 7.21875 -11.957031 7.347656 -10.597656 7.609375 -9.796875 C 7.867188 -8.992188 8.242188 -8.59375 8.734375 -8.59375 Z M 8.734375 -8.59375 "/></g></g></g><g fill="#ffffff" fill-opacity="1"><g transform="translate(340.481335, 237.30118)"><g><path d="M 8.59375 -19.828125 C 9.5625 -19.828125 10.472656 -19.71875 11.328125 -19.5 C 12.179688 -19.289062 12.832031 -19.0625 13.28125 -18.8125 C 13.550781 -18.664062 13.773438 -18.59375 13.953125 -18.59375 C 14.460938 -18.59375 14.769531 -18.988281 14.875 -19.78125 L 15.625 -19.78125 C 15.519531 -18.488281 15.46875 -16.257812 15.46875 -13.09375 L 14.71875 -13.09375 C 14.519531 -14.726562 14.054688 -16.109375 13.328125 -17.234375 C 12.597656 -18.359375 11.539062 -18.921875 10.15625 -18.921875 C 9.53125 -18.921875 9.003906 -18.734375 8.578125 -18.359375 C 8.160156 -17.992188 7.953125 -17.488281 7.953125 -16.84375 C 7.953125 -16.03125 8.222656 -15.304688 8.765625 -14.671875 C 9.316406 -14.035156 10.175781 -13.257812 11.34375 -12.34375 C 11.394531 -12.320312 11.753906 -12.035156 12.421875 -11.484375 C 13.804688 -10.347656 14.820312 -9.335938 15.46875 -8.453125 C 16.113281 -7.578125 16.4375 -6.492188 16.4375 -5.203125 C 16.4375 -4.109375 16.097656 -3.125 15.421875 -2.25 C 14.753906 -1.375 13.84375 -0.691406 12.6875 -0.203125 C 11.539062 0.273438 10.285156 0.515625 8.921875 0.515625 C 7.359375 0.515625 6.082031 0.207031 5.09375 -0.40625 C 4.675781 -0.632812 4.328125 -0.796875 4.046875 -0.890625 C 3.773438 -0.992188 3.503906 -1.046875 3.234375 -1.046875 C 2.765625 -1.046875 2.414062 -0.609375 2.1875 0.265625 L 1.453125 0.265625 C 1.546875 -1.148438 1.59375 -3.628906 1.59375 -7.171875 L 2.34375 -7.171875 C 2.5625 -5.140625 3.101562 -3.503906 3.96875 -2.265625 C 4.84375 -1.023438 5.9375 -0.40625 7.25 -0.40625 C 7.875 -0.40625 8.390625 -0.578125 8.796875 -0.921875 C 9.203125 -1.273438 9.40625 -1.785156 9.40625 -2.453125 C 9.40625 -3.148438 9.257812 -3.769531 8.96875 -4.3125 C 8.6875 -4.851562 8.34375 -5.34375 7.9375 -5.78125 C 7.53125 -6.21875 6.867188 -6.84375 5.953125 -7.65625 C 4.910156 -8.625 4.113281 -9.394531 3.5625 -9.96875 C 3.019531 -10.539062 2.554688 -11.203125 2.171875 -11.953125 C 1.785156 -12.710938 1.59375 -13.550781 1.59375 -14.46875 C 1.59375 -15.53125 1.914062 -16.46875 2.5625 -17.28125 C 3.207031 -18.101562 4.0625 -18.734375 5.125 -19.171875 C 6.195312 -19.609375 7.351562 -19.828125 8.59375 -19.828125 Z M 8.59375 -19.828125 "/></g></g></g></svg>